<svg xmlns="http://www.w3.org/2000/svg" width="385.691" height="155.203" viewBox="0 0 289.268 116.403"><defs><clipPath id="a"><path d="M947.032 135.35h91.808V43.54h-91.808z"/></clipPath><clipPath id="b"><path d="M947.032 137.4h91.808V41.49h-91.808z"/></clipPath><clipPath id="c"><path d="M621.306 707.13h127.641v-65.82H621.306Z"/></clipPath><clipPath id="d"><path d="M621.306 707.13h127.641v-65.82H621.306Z"/></clipPath><clipPath id="e"><path d="M33.089 760.02h91.808v-91.81H33.089Z"/></clipPath><clipPath id="f"><path d="M33.089 762.07h91.808v-95.91H33.089Z"/></clipPath></defs><path fill="#64c9db" d="M52.382 40.743h23.277V17.458C75.66 7.818 67.842 0 58.201 0c-9.64 0-17.458 7.817-17.458 17.458v23.285H17.458C7.818 40.743 0 48.56 0 58.201 0 67.842 7.817 75.66 17.458 75.66h23.285V52.382c0-6.43 5.21-11.639 11.639-11.639" style="stroke-width:7.26517"/><path fill="#1f95cd" d="M98.942 40.743H75.657v23.278c0 6.43-5.209 11.638-11.639 11.638H40.741v23.285c0 9.641 7.817 17.458 17.458 17.458 9.64 0 17.458-7.817 17.458-17.458V75.66h23.285c9.641 0 17.458-7.817 17.458-17.458 0-9.64-7.817-17.458-17.458-17.458" style="stroke-width:7.26517"/><path fill="#43acd5" d="M75.659 64.021V40.744H52.38c-6.43 0-11.639 5.209-11.639 11.639V75.66H64.02c6.43 0 11.639-5.209 11.639-11.639" style="stroke-width:7.26517"/><path fill="#444b4b" d="M192.785 44.085c0 7.926-3.233 12.86-9.946 14.8-4.323 1.205-8.915 1.816-18.57 1.83 0 0 .03 0 0 0-4.345 0-7.904-.16-10.215-.48-1.867-.254-2.804-1.096-2.804-2.513V50.95h30.303V22.907h-44.58v10.251h30.297V40.7h-30.296v15.722c0 5.202-.175 8.61 2.906 11.748 3.61 3.676 8.544 3.952 23.56 3.952h8.675c6.612 0 32.548-3.748 34.793-20.59a14.58 14.58 0 0 0 .175-2.186V22.922h-14.298zM289.268 60.716V22.908h-14.392v34.698c-.552 6.677-3.77 10.905-9.851 12.663-4.323 1.206-8.922 1.817-18.577 1.831 0 0 .036.01 0 .01-4.338-.01-7.905-.167-10.208-.487-1.867-.254-2.804-1.097-2.804-2.513V55.989h26.648V45.738h-26.648V33.162h30.136V22.91h-44.42v46.498c0 4.33.16 7.352 2.906 10.149 3.611 3.683 8.551 3.952 23.569 3.952h8.674c3.531 0 12.569-1.075 20.575-4.635v26.947h14.392V60.689M183.807 105.808c-5.595 0-10.135-4.534-10.135-10.135 0-5.594 4.54-10.128 10.135-10.128 5.594 0 10.127 4.534 10.127 10.128 0 5.601-4.533 10.135-10.127 10.135m16.84-25.174c-4.294-3.742-9.88-5.616-16.76-5.616-6.946 0-12.57 1.874-16.863 5.616-4.294 3.756-6.437 8.762-6.437 15.024 0 6.27 2.143 11.29 6.437 15.075 4.294 3.786 9.917 5.667 16.862 5.667 6.88 0 12.467-1.881 16.761-5.667 4.294-3.785 6.437-8.805 6.437-15.075 0-6.262-2.143-11.268-6.437-15.024" style="stroke-width:7.26517"/></svg>